<svg width="32" height="32" viewBox="0 0 32 32" fill="none" xmlns="http://www.w3.org/2000/svg">
<g clip-path="url(#clip0_10019_48819)">
<path d="M25.1019 27.0956C25.3661 27.4146 25.8403 27.4604 26.1457 27.1806C28.23 25.2713 29.7364 22.8079 30.4837 20.0713C31.2969 17.0932 31.1715 13.9366 30.1243 11.0323C29.0772 8.12812 27.1595 5.61772 24.6329 3.84372C22.1062 2.06973 19.0937 1.11855 16.0065 1.11999C12.9193 1.12142 9.90769 2.07541 7.3827 3.85176C4.85771 5.62811 2.94233 8.14029 1.89792 11.0455C0.853511 13.9507 0.730956 17.1074 1.54698 20.0848C2.29679 22.8207 3.8055 25.2827 5.89155 27.1901C6.19724 27.4696 6.67144 27.4233 6.93532 27.104V27.104C7.1992 26.7847 7.15269 26.3135 6.84855 26.0323C4.99968 24.3229 3.66183 22.1264 2.99363 19.6883C2.25921 17.0086 2.36951 14.1676 3.30948 11.5529C4.24944 8.93826 5.97329 6.67729 8.24578 5.07858C10.5183 3.47987 13.2287 2.62128 16.0072 2.61999C18.7857 2.61869 21.4969 3.47475 23.7709 5.07135C26.0449 6.66795 27.7709 8.92731 28.7133 11.5411C29.6557 14.1549 29.7686 16.9958 29.0367 19.6762C28.3707 22.1149 27.0349 24.3126 25.1877 26.0238C24.8838 26.3052 24.8377 26.7765 25.1019 27.0956V27.0956Z" fill="#D9D9D9"/>
<path d="M23.1659 24.6765C23.3772 24.9317 23.7566 24.9683 24.001 24.7445C25.6684 23.2171 26.8735 21.2463 27.4713 19.0571C28.1219 16.6745 28.0215 14.1493 27.1838 11.8259C26.3462 9.5025 24.812 7.49418 22.7907 6.07498C20.7693 4.65578 18.3594 3.89484 15.8896 3.89599C13.4198 3.89714 11.0105 4.66033 8.99054 6.08141C6.97055 7.50249 5.43824 9.51223 4.60271 11.8364C3.76718 14.1606 3.66914 16.6859 4.32196 19.0679C4.92181 21.2565 6.12878 23.2262 7.79761 24.752C8.04217 24.9756 8.42152 24.9386 8.63263 24.6832V24.6832C8.84373 24.4278 8.80653 24.0508 8.56322 23.8258C7.08412 22.4583 6.01384 20.7011 5.47928 18.7507C4.89174 16.6069 4.97998 14.3341 5.73196 12.2424C6.48393 10.1506 7.86301 8.34184 9.681 7.06287C11.499 5.78389 13.6673 5.09703 15.8901 5.09599C18.1129 5.09496 20.2819 5.7798 22.1011 7.05708C23.9203 8.33436 25.3011 10.1418 26.055 12.2329C26.8089 14.3239 26.8993 16.5967 26.3137 18.741C25.781 20.6919 24.7123 22.4501 23.2345 23.819C22.9914 24.0442 22.9546 24.4212 23.1659 24.6765V24.6765Z" fill="#D9D9D9"/>
</g>
<defs>
<clipPath id="clip0_10019_48819">
<rect width="32" height="32" fill="white"/>
</clipPath>
</defs>
</svg>
