<svg width="32" height="32" viewBox="0 0 32 32" fill="none" xmlns="http://www.w3.org/2000/svg">
<g clip-path="url(#clip0_10019_48819)">
<path d="M24.8627 26.8067C25.259 27.2853 25.9715 27.3549 26.4191 26.9239C28.3619 25.0528 29.7695 22.6868 30.4837 20.0713C31.2969 17.0932 31.1715 13.9366 30.1243 11.0323C29.0772 8.12812 27.1595 5.61772 24.6329 3.84372C22.1062 2.06973 19.0937 1.11855 16.0065 1.11999C12.9193 1.12142 9.90769 2.07541 7.3827 3.85176C4.85771 5.62811 2.94233 8.14029 1.89792 11.0455C0.853511 13.9507 0.730956 17.1074 1.54698 20.0848C2.26361 22.6996 3.67345 25.0643 5.618 26.9336C6.06592 27.3642 6.7784 27.2939 7.17422 26.815V26.815C7.57004 26.3361 7.49861 25.6303 7.05644 25.1938C5.46598 23.6238 4.31114 21.6581 3.71696 19.4901C3.02334 16.9593 3.12751 14.2761 4.01526 11.8067C4.903 9.33724 6.53108 7.20189 8.67732 5.69199C10.8236 4.1821 13.3834 3.37121 16.0076 3.36999C18.6317 3.36877 21.1923 4.17727 23.34 5.68516C25.4876 7.19306 27.1177 9.3269 28.0077 11.7955C28.8978 14.2641 29.0044 16.9472 28.3132 19.4786C27.721 21.6472 26.568 23.614 24.979 25.1854C24.5372 25.6223 24.4665 26.3282 24.8627 26.8067V26.8067Z" fill="#212519"/>
<path d="M22.9802 24.3852C23.284 24.7521 23.8303 24.8054 24.1734 24.475C25.6628 23.0405 26.742 21.2265 27.2896 19.2214C27.9131 16.9381 27.8169 14.518 27.0141 12.2915C26.2113 10.0649 24.741 8.14025 22.8039 6.78019C20.8668 5.42013 18.5573 4.69089 16.1904 4.69199C13.8235 4.69309 11.5146 5.42448 9.57882 6.78635C7.643 8.14821 6.17453 10.0742 5.37382 12.3015C4.57311 14.5289 4.47915 16.949 5.10477 19.2317C5.65419 21.2364 6.73506 23.0493 8.22589 24.4824C8.56929 24.8125 9.11552 24.7587 9.41898 24.3915V24.3915C9.72245 24.0243 9.66769 23.4832 9.32868 23.1486C8.10934 21.9449 7.22396 20.4379 6.76842 18.7757C6.23664 16.8354 6.31651 14.7783 6.99711 12.8851C7.67772 10.9919 8.92591 9.35478 10.5714 8.19719C12.2168 7.03961 14.1794 6.41793 16.1912 6.41699C18.2031 6.41605 20.1662 7.0359 21.8127 8.19196C23.4592 9.34801 24.709 10.984 25.3913 12.8765C26.0737 14.7691 26.1555 16.8262 25.6255 18.767C25.1715 20.4295 24.2875 21.9374 23.0693 23.1422C22.7306 23.4771 22.6764 24.0183 22.9802 24.3852V24.3852Z" fill="#212519"/>
</g>
<defs>
<clipPath id="clip0_10019_48819">
<rect width="32" height="32" fill="white"/>
</clipPath>
</defs>
</svg>
